<svg id="Group_11" data-name="Group 11" xmlns="http://www.w3.org/2000/svg" xmlns:xlink="http://www.w3.org/1999/xlink" width="388" height="388" viewBox="0 0 388 388">
  <defs>
    <clipPath id="clip-path">
      <rect id="Rectangle_7" data-name="Rectangle 7" width="388" height="388" fill="none"/>
    </clipPath>
  </defs>
  <g id="Group_10" data-name="Group 10" clip-path="url(#clip-path)">
    <path id="Path_19" data-name="Path 19" d="M373.61,166.049H361.073a4.627,4.627,0,0,1-4.5-3.9A164.253,164.253,0,0,0,331.2,100.9a4.636,4.636,0,0,1,.424-5.95l8.865-8.856a13.858,13.858,0,0,0,0-19.575L320.917,46.964a13.665,13.665,0,0,0-9.769-4.059h-.009a13.753,13.753,0,0,0-9.788,4.05L292.5,55.82a4.636,4.636,0,0,1-5.95.424A164.3,164.3,0,0,0,225.31,30.876a4.634,4.634,0,0,1-3.911-4.5V13.837A13.854,13.854,0,0,0,207.561,0H179.886a13.854,13.854,0,0,0-13.837,13.837V26.374a4.634,4.634,0,0,1-3.911,4.5A164.3,164.3,0,0,0,100.9,56.244a4.636,4.636,0,0,1-5.95-.424L86.1,46.955a13.753,13.753,0,0,0-9.788-4.05H76.3a13.694,13.694,0,0,0-9.769,4.05L46.955,66.521a13.858,13.858,0,0,0,0,19.575l8.865,8.865a4.622,4.622,0,0,1,.424,5.941,164.253,164.253,0,0,0-25.369,61.244,4.627,4.627,0,0,1-4.5,3.9H13.837A13.854,13.854,0,0,0,0,179.886v27.675A13.854,13.854,0,0,0,13.837,221.4H26.374a4.627,4.627,0,0,1,4.5,3.911,164.379,164.379,0,0,0,25.369,61.244,4.635,4.635,0,0,1-.424,5.941l-8.865,8.856a13.819,13.819,0,0,0,0,19.566L66.53,340.492a13.7,13.7,0,0,0,9.769,4.059h.009a13.761,13.761,0,0,0,9.788-4.059l8.856-8.865a4.636,4.636,0,0,1,5.95-.424,164.274,164.274,0,0,0,61.235,25.369,4.627,4.627,0,0,1,3.911,4.5V373.61a13.854,13.854,0,0,0,13.837,13.837h27.675A13.854,13.854,0,0,0,221.4,373.61V361.073a4.627,4.627,0,0,1,3.911-4.5A164.274,164.274,0,0,0,286.545,331.2a4.636,4.636,0,0,1,5.95.424l8.856,8.865a13.761,13.761,0,0,0,9.788,4.059h.009a13.7,13.7,0,0,0,9.769-4.059l19.575-19.575a13.819,13.819,0,0,0,0-19.566l-8.865-8.856a4.635,4.635,0,0,1-.424-5.941,164.378,164.378,0,0,0,25.369-61.244,4.627,4.627,0,0,1,4.5-3.911H373.61a13.854,13.854,0,0,0,13.837-13.837V179.886a13.854,13.854,0,0,0-13.837-13.837m4.612,41.512a4.626,4.626,0,0,1-4.612,4.612H361.073a13.936,13.936,0,0,0-13.561,11.384,155.226,155.226,0,0,1-23.948,57.822,13.927,13.927,0,0,0,1.541,17.638l8.865,8.856a4.6,4.6,0,0,1,0,6.522L314.4,333.97a4.566,4.566,0,0,1-3.247,1.356h-.009a4.577,4.577,0,0,1-3.266-1.356l-8.856-8.865a13.923,13.923,0,0,0-17.638-1.541,155.226,155.226,0,0,1-57.822,23.948,13.936,13.936,0,0,0-11.384,13.561V373.61a4.626,4.626,0,0,1-4.612,4.612H179.886a4.626,4.626,0,0,1-4.612-4.612V361.073a13.936,13.936,0,0,0-11.384-13.561,155.225,155.225,0,0,1-57.822-23.948,14.1,14.1,0,0,0-7.933-2.435,13.681,13.681,0,0,0-9.7,3.976l-8.856,8.865a4.577,4.577,0,0,1-3.266,1.356H76.3a4.566,4.566,0,0,1-3.247-1.356L53.477,314.4a4.6,4.6,0,0,1,0-6.522l8.865-8.856a13.927,13.927,0,0,0,1.541-17.638,155.226,155.226,0,0,1-23.948-57.822,13.936,13.936,0,0,0-13.561-11.384H13.837a4.626,4.626,0,0,1-4.612-4.612V179.886a4.62,4.62,0,0,1,4.612-4.612H26.374A13.927,13.927,0,0,0,39.935,163.89a155.12,155.12,0,0,1,23.948-57.813A13.937,13.937,0,0,0,62.342,88.43l-8.865-8.865a4.616,4.616,0,0,1,0-6.522L73.052,53.477A4.6,4.6,0,0,1,76.3,52.13h.009a4.607,4.607,0,0,1,3.266,1.347l8.856,8.865a13.958,13.958,0,0,0,17.647,1.541A154.931,154.931,0,0,1,163.89,39.935a13.936,13.936,0,0,0,11.384-13.561V13.837a4.62,4.62,0,0,1,4.612-4.612h27.675a4.62,4.62,0,0,1,4.612,4.612V26.374a13.936,13.936,0,0,0,11.384,13.561A154.931,154.931,0,0,1,281.37,63.883a13.936,13.936,0,0,0,17.647-1.541l8.856-8.865a4.607,4.607,0,0,1,3.266-1.347h.009a4.6,4.6,0,0,1,3.247,1.347L333.97,73.043a4.616,4.616,0,0,1,0,6.522l-8.865,8.865a13.925,13.925,0,0,0-1.541,17.638,155.225,155.225,0,0,1,23.948,57.822,13.927,13.927,0,0,0,13.561,11.384H373.61a4.62,4.62,0,0,1,4.612,4.612Z" fill="#107136"/>
    <path id="Path_20" data-name="Path 20" d="M144.374,6C68.075,6,6,68.075,6,144.374S68.075,282.748,144.374,282.748s138.374-62.075,138.374-138.374S220.674,6,144.374,6m0,267.523A129.149,129.149,0,1,1,273.523,144.374,129.291,129.291,0,0,1,144.374,273.523" transform="translate(49.35 49.35)" fill="#107136"/>
    <path id="Path_21" data-name="Path 21" d="M23.112,31.95a4.614,4.614,0,0,0,4.612-4.612V18.112a4.612,4.612,0,1,0-9.225,0v9.225a4.614,4.614,0,0,0,4.612,4.612" transform="translate(152.161 111.037)" fill="#107136"/>
    <path id="Path_22" data-name="Path 22" d="M23.112,26.5A4.614,4.614,0,0,0,18.5,31.112v9.225a4.612,4.612,0,0,0,9.225,0V31.112A4.614,4.614,0,0,0,23.112,26.5" transform="translate(152.161 217.961)" fill="#107136"/>
    <path id="Path_23" data-name="Path 23" d="M21.43,26.092,14.9,32.623a4.612,4.612,0,1,0,6.522,6.522l6.531-6.531a4.612,4.612,0,0,0-6.522-6.522" transform="translate(111.446 203.508)" fill="#107136"/>
    <path id="Path_24" data-name="Path 24" d="M25.337,20.5H16.112a4.612,4.612,0,1,0,0,9.225h9.225a4.612,4.612,0,1,0,0-9.225" transform="translate(94.587 168.611)" fill="#107136"/>
    <path id="Path_25" data-name="Path 25" d="M21.43,29.949a4.615,4.615,0,0,0,6.522-6.531L21.421,16.9A4.615,4.615,0,1,0,14.9,23.427Z" transform="translate(111.446 127.899)" fill="#107136"/>
    <path id="Path_26" data-name="Path 26" d="M141.177,18.018c-10.563-6.743-27.306,2.454-39.483,11.374C97.423,32.529,93.106,36.1,89.028,39.77a41.441,41.441,0,1,0-33.016,66.392,40.1,40.1,0,0,0,16.282-3.542,35.972,35.972,0,0,0,29.068,14.465,36.931,36.931,0,0,0,31.153-17.011c8.515-13.312,28.431-69.418,8.662-82.056M56.012,96.937A32.288,32.288,0,1,1,82.248,46.209,92.116,92.116,0,0,0,70.339,60.323a36.886,36.886,0,0,0-2.823,34.344,30.9,30.9,0,0,1-11.5,2.269M124.747,95.1a27.681,27.681,0,0,1-34.1,10.5l18.312-28.643L126.924,73a4.614,4.614,0,0,0-1.983-9.013l-8.948,1.974,6.7-10.48a4.607,4.607,0,1,0-7.758-4.972L98.973,75.471l-2.223-7.9a4.614,4.614,0,0,0-8.884,2.5l4.446,15.8-9.437,14.76A27.73,27.73,0,0,1,77.9,94.585l-.018-.065-.046-.055A27.625,27.625,0,0,1,78.1,65.3c4.188-6.55,15.793-18.745,29.049-28.45,12.039-8.819,20.433-11.937,25.359-11.937a6.8,6.8,0,0,1,3.7.886c10.867,6.946-1.365,53.523-11.457,69.307" transform="translate(119.262 129.074)" fill="#107136"/>
  </g>
</svg>
