<svg id="Group_16" data-name="Group 16" xmlns="http://www.w3.org/2000/svg" xmlns:xlink="http://www.w3.org/1999/xlink" width="431.555" height="440.515" viewBox="0 0 431.555 440.515">
  <defs>
    <clipPath id="clip-path">
      <rect id="Rectangle_9" data-name="Rectangle 9" width="431.555" height="440.515" fill="none"/>
    </clipPath>
  </defs>
  <g id="Group_15" data-name="Group 15" transform="translate(0 0)">
    <g id="Group_14" data-name="Group 14" clip-path="url(#clip-path)">
      <path id="Path_29" data-name="Path 29" d="M43.275,74.31V25.4A5.138,5.138,0,1,0,33,25.4V76.776a5.14,5.14,0,0,0,1.932,4.018l25.678,20.55a5.142,5.142,0,1,0,6.432-8.025Z" transform="translate(306.079 187.942)" fill="#107136"/>
      <path id="Path_30" data-name="Path 30" d="M424.383,323.493l-15.947.267a87.142,87.142,0,0,0-48.981-144.951c.041-.493.175-.914.175-1.418,0-7-3.925-13.121-7.388-18.526-2.5-3.915-4.86-7.6-5.446-10.933-.616-3.514.37-7.891,1.418-12.536,1.428-6.473,2.928-13.162.606-19.523-2.363-6.494-8.117-10.892-13.193-14.765-3.72-2.836-7.244-5.518-8.96-8.5-1.747-3.041-2.343-7.47-2.959-12.155-.863-6.6-1.757-13.419-6.145-18.649-4.408-5.251-10.984-7.306-17.334-9.309-4.5-1.408-8.744-2.733-11.426-4.983-2.661-2.23-4.706-6.175-6.853-10.347-3.083-5.939-6.258-12.073-12.2-15.526-5.908-3.4-12.772-3.083-19.4-2.805-4.747.206-9.206.4-12.525-.8-3.216-1.171-6.453-4.151-9.885-7.306-4.706-4.336-10.059-9.258-16.9-10.45-6.638-1.13-12.926,1.449-19.019,4-4.408,1.839-8.58,3.576-12.207,3.576s-7.789-1.736-12.207-3.586C161.514,1.728,155.2-.851,148.6.269c-6.853,1.2-12.186,6.114-16.913,10.45-3.422,3.154-6.658,6.145-9.885,7.306-3.319,1.223-7.778,1.017-12.525.8-6.638-.3-13.5-.606-19.379,2.815-5.949,3.442-9.124,9.576-12.2,15.515-2.158,4.172-4.2,8.117-6.853,10.347-2.682,2.25-6.925,3.576-11.426,4.983-6.371,2-12.936,4.059-17.344,9.309-4.4,5.23-5.292,12.053-6.155,18.649-.606,4.685-1.192,9.114-2.959,12.155-1.716,2.98-5.24,5.662-8.95,8.5-5.086,3.874-10.851,8.271-13.2,14.765-2.322,6.36-.822,13.049.606,19.523,1.048,4.644,2.034,9.032,1.418,12.546-.6,3.329-2.949,7.018-5.446,10.922C3.925,164.27,0,170.394,0,177.391S3.925,190.5,7.388,195.907c2.5,3.9,4.85,7.6,5.446,10.933.617,3.514-.37,7.891-1.418,12.536-1.428,6.473-2.928,13.162-.606,19.523,2.353,6.494,8.117,10.892,13.193,14.765,3.72,2.836,7.244,5.518,8.96,8.508,1.747,3.031,2.343,7.46,2.959,12.145.863,6.6,1.757,13.419,6.145,18.66a19.655,19.655,0,0,0,2.209,2.045L4.891,379.5a15.413,15.413,0,0,0,19.872,20.756l42.488-17.6a5.139,5.139,0,0,1,4.141.092,5.013,5.013,0,0,1,2.733,3.113l13.851,43.875a15.318,15.318,0,0,0,13.686,10.748c.339.021.688.031,1.038.031a15.306,15.306,0,0,0,13.943-8.9l35.881-76.95c5.2-.164,10.2-2.137,15.084-4.172,4.418-1.829,8.59-3.565,12.207-3.565s7.8,1.736,12.207,3.576a57.548,57.548,0,0,0,11.611,3.884l36.014,77.228a15.3,15.3,0,0,0,13.923,8.9c.349,0,.7-.01,1.038-.031a15.317,15.317,0,0,0,13.7-10.748l13.83-43.875A5.161,5.161,0,0,1,289,382.657l42.518,17.6A15.41,15.41,0,0,0,351.378,379.5L338.452,351.77c1.911.123,3.812.3,5.764.3a87.584,87.584,0,0,0,21.835-2.754,5.141,5.141,0,0,0-2.569-9.957,75.314,75.314,0,0,1-32.685,1.182h0c-2.3-.4-4.562-.925-6.792-1.531l-.555-.144c-2.034-.565-4.028-1.233-6.011-1.963-.37-.144-.771-.277-1.151-.432-1.778-.688-3.5-1.469-5.22-2.281-.555-.267-1.1-.514-1.634-.781-1.562-.8-3.093-1.665-4.6-2.559-.606-.37-1.223-.74-1.829-1.12q-2.173-1.372-4.2-2.887c-.6-.432-1.182-.863-1.747-1.3-1.4-1.079-2.743-2.209-4.059-3.38-.462-.421-.935-.843-1.4-1.274-1.356-1.295-2.7-2.641-3.987-4.038l-1-1.089c-1.336-1.51-2.61-3.083-3.833-4.7-.206-.277-.4-.545-.606-.812a76.119,76.119,0,0,1-6.319-10.08,2.951,2.951,0,0,1-.185-.411,74.783,74.783,0,0,1-4.377-10.3c-.113-.319-.247-.627-.349-.945-.76-2.332-1.212-4.757-1.747-7.162-.411-1.86-.873-3.72-1.151-5.579l-.01-.072a76.36,76.36,0,0,1-.884-10.974,78.576,78.576,0,0,1,.863-10.933c.113-.781.236-1.572.36-2.353a76.355,76.355,0,0,1,2.487-10.244c.144-.452.319-.884.473-1.336a80.356,80.356,0,0,1,3.6-8.682c.349-.678.637-1.367,1-2.034a78.43,78.43,0,0,1,5.189-8.539c.514-.709,1.048-1.387,1.562-2.076a79.34,79.34,0,0,1,5.754-6.833c.38-.4.73-.843,1.13-1.233a77.844,77.844,0,0,1,7.737-6.74c.606-.473,1.223-.935,1.86-1.387a76.575,76.575,0,0,1,9.145-5.754,3.63,3.63,0,0,0,.349-.164,78.833,78.833,0,0,1,10.84-4.624,76.647,76.647,0,0,1,24.722-4.131A77.253,77.253,0,0,1,421.28,264.73a76.619,76.619,0,0,1-20.91,52.66l-.288-17.427a5.14,5.14,0,0,0-5.138-5.045h-.092a5.125,5.125,0,0,0-5.045,5.22l.473,29.058a5.139,5.139,0,0,0,5.138,5.055h.082l29.058-.483a5.149,5.149,0,0,0,5.066-5.22,4.878,4.878,0,0,0-5.24-5.055M107.334,427.272a5.134,5.134,0,0,1-9.556-.627L83.927,382.77A15.383,15.383,0,0,0,69.234,372a15.641,15.641,0,0,0-5.908,1.161l-42.5,17.6a5.142,5.142,0,0,1-6.627-6.915l39.035-83.7c2.024.771,4.1,1.48,6.165,2.127,4.511,1.408,8.744,2.733,11.436,4.983,2.651,2.24,4.7,6.175,6.854,10.357,3.072,5.929,6.247,12.063,12.2,15.505,5.867,3.411,12.751,3.093,19.389,2.815,2.374-.1,4.675-.206,6.8-.123a19.021,19.021,0,0,1,5.723.925h0c3.216,1.171,6.453,4.151,9.885,7.306,1.418,1.3,2.918,2.63,4.459,3.915.36.288.709.555,1.069.832a35.088,35.088,0,0,0,4.2,2.846c.308.185.575.442.894.617Zm234.745-43.423a5.145,5.145,0,0,1-6.638,6.915l-42.5-17.6a15.414,15.414,0,0,0-20.591,9.607l-13.841,43.875a5.025,5.025,0,0,1-4.562,3.586,4.962,4.962,0,0,1-4.994-2.959l-34.391-73.745c.277-.1.524-.267.781-.38.534-.226,1.038-.493,1.572-.76a29.94,29.94,0,0,0,2.651-1.531c.483-.308.956-.617,1.418-.956.894-.647,1.757-1.326,2.61-2.034.349-.3.709-.575,1.069-.873,1.11-.976,2.209-1.973,3.278-2.949,3.422-3.154,6.669-6.134,9.874-7.306,3.329-1.192,7.789-1,12.536-.791,6.638.288,13.512.6,19.379-2.815a20.3,20.3,0,0,0,4.881-4.1c.421-.452.791-.914,1.171-1.387a39.959,39.959,0,0,0,2.918-4.182c.123-.216.3-.4.432-.627.154.164.329.3.473.462A87.775,87.775,0,0,0,299.8,339.789c.4.247.791.5,1.192.73a87.489,87.489,0,0,0,11.59,5.528c.349.134.678.247,1.027.37a85.583,85.583,0,0,0,12.782,3.8Zm-82.848-99.216a131.967,131.967,0,0,1-79.416,26.335c-73.652,0-133.576-59.924-133.576-133.576S106.162,43.815,179.814,43.815s133.576,59.914,133.576,133.576c0,1.942-.1,3.853-.236,5.754-.154.062-.3.154-.462.216a86.987,86.987,0,0,0-11.241,5.292c-.442.257-.873.534-1.315.8a87.775,87.775,0,0,0-8.713,5.857c-.637.483-1.295.935-1.9,1.428a87.694,87.694,0,0,0-8.087,7.408c-.76.781-1.449,1.6-2.189,2.4a91.334,91.334,0,0,0-5.816,7.2c-.452.627-.935,1.212-1.387,1.86a86.9,86.9,0,0,0-5.569,9.515c-.462.884-.884,1.788-1.315,2.692a88.43,88.43,0,0,0-4.028,10.08c-.082.226-.175.442-.247.678a85.138,85.138,0,0,0-2.651,11.375c-.175.925-.308,1.85-.432,2.785a85.428,85.428,0,0,0-.925,11.991,87.7,87.7,0,0,0,.575,9.772c.031.257.092.5.134.76.041.39.113.781.175,1.171.113.956.267,1.891.432,2.836.288,1.747.616,3.473,1.007,5.189l.031.175M323.553,179.96c.021-.863.113-1.706.113-2.569,0-79.324-64.538-143.852-143.852-143.852S35.963,98.067,35.963,177.391,100.5,321.243,179.814,321.243a142.112,142.112,0,0,0,82.561-26.335c.853,2.343,1.819,4.634,2.877,6.874.236.534.5,1.069.76,1.6A89.211,89.211,0,0,0,272.2,314.05c-.144.277-.3.555-.442.843-.319.617-.647,1.233-.986,1.829-.339.627-.7,1.2-1.058,1.788-.277.442-.555.9-.832,1.315-.411.617-.863,1.141-1.295,1.675-.247.3-.473.637-.719.894a10.3,10.3,0,0,1-2.281,1.85c-3.278,1.9-8.405,1.665-13.779,1.439-5.518-.257-11.262-.5-16.512,1.408-5.138,1.87-9.289,5.692-13.306,9.391-4.038,3.709-7.85,7.223-11.714,7.9-3.7.647-8.364-1.315-13.3-3.37-5.168-2.147-10.491-4.357-16.163-4.357s-10.994,2.209-16.152,4.357c-4.953,2.065-9.628,4-13.3,3.36l-.092-.031h-.01c-3.843-.73-7.624-4.2-11.621-7.871-3.391-3.1-6.9-6.237-10.984-8.282a21.018,21.018,0,0,0-2.332-1.1c-.524-.2-1.079-.277-1.613-.432-4.8-1.346-9.915-1.223-14.9-.986-5.384.236-10.491.462-13.779-1.439-3.35-1.942-5.713-6.5-8.23-11.344-2.517-4.891-5.138-9.936-9.361-13.491-4.244-3.576-9.679-5.3-14.94-6.967a52.646,52.646,0,0,1-9.258-3.565l-.082-.031a11.754,11.754,0,0,1-3.226-2.466c-2.456-2.939-3.124-8.015-3.843-13.388-.709-5.477-1.449-11.148-4.244-15.957-2.743-4.768-7.254-8.2-11.631-11.529-4.326-3.309-8.426-6.443-9.761-10.1-1.284-3.545-.175-8.518,1-13.779,1.2-5.415,2.466-11.015,1.5-16.553-.945-5.364-3.976-10.1-6.915-14.693-2.959-4.624-5.764-9-5.764-12.977s2.805-8.364,5.764-13c2.939-4.583,5.97-9.33,6.915-14.693.966-5.528-.3-11.138-1.5-16.553-1.171-5.261-2.281-10.224-.986-13.769,1.336-3.668,5.436-6.8,9.772-10.111,4.367-3.329,8.867-6.771,11.611-11.518,2.805-4.819,3.545-10.481,4.264-15.968.7-5.374,1.367-10.45,3.833-13.378,2.476-2.949,7.367-4.48,12.556-6.1,5.261-1.654,10.7-3.36,14.95-6.925,4.233-3.555,6.843-8.611,9.371-13.5,2.507-4.84,4.87-9.4,8.22-11.344,3.278-1.9,8.374-1.675,13.789-1.439,5.528.257,11.251.5,16.5-1.408,5.138-1.87,9.3-5.692,13.306-9.391,4.048-3.709,7.85-7.213,11.734-7.891,3.668-.678,8.343,1.3,13.286,3.36,5.158,2.147,10.481,4.367,16.152,4.367s10.994-2.219,16.163-4.367c4.953-2.055,9.628-4.018,13.3-3.36,3.874.678,7.686,4.182,11.714,7.891s8.179,7.521,13.317,9.391c5.261,1.921,10.984,1.675,16.512,1.418,5.415-.247,10.491-.462,13.779,1.439,3.35,1.942,5.713,6.5,8.23,11.344,2.528,4.891,5.138,9.936,9.361,13.5,4.244,3.565,9.689,5.271,14.95,6.925,5.2,1.623,10.08,3.154,12.556,6.1,2.456,2.928,3.124,8,3.843,13.378.709,5.477,1.459,11.148,4.244,15.968,2.743,4.757,7.254,8.189,11.621,11.518,4.336,3.309,8.436,6.442,9.772,10.111,1.284,3.535.175,8.508-1,13.769-1.212,5.415-2.456,11.025-1.5,16.553.935,5.353,3.976,10.1,6.915,14.693,2.959,4.634,5.764,9,5.764,12.988v.164c-1.706-.113-3.422-.164-5.138-.164a86.68,86.68,0,0,0-20.663,2.569" transform="translate(0 -0.002)" fill="#107136"/>
    </g>
  </g>
  <text id="EPC" transform="translate(87.338 195.122)" fill="#107136" font-size="94" font-family="ArialRoundedMTBold, Arial Rounded MT Bold"><tspan x="0" y="0">EPC</tspan></text>
</svg>
