<svg id="Group_18" data-name="Group 18" xmlns="http://www.w3.org/2000/svg" xmlns:xlink="http://www.w3.org/1999/xlink" width="381" height="401" viewBox="0 0 381 401">
  <defs>
    <clipPath id="clip-path">
      <rect id="Rectangle_10" data-name="Rectangle 10" width="381" height="401" fill="none"/>
    </clipPath>
  </defs>
  <g id="Group_17" data-name="Group 17" clip-path="url(#clip-path)">
    <path id="Path_31" data-name="Path 31" d="M375.71,60.114a5.011,5.011,0,0,0,5.009-5.009V35.066A35.1,35.1,0,0,0,345.653,0H45.085A45.14,45.14,0,0,0,0,45.085V395.747a5.011,5.011,0,0,0,5.009,5.009H315.6a5.011,5.011,0,0,0,5.009-5.009V60.114ZM370.7,35.066V50.095H320.605V35.066a25.047,25.047,0,1,1,50.095,0M310.587,390.738H10.019V45.085A35.1,35.1,0,0,1,45.085,10.019h276.1a34.917,34.917,0,0,0-10.6,25.047Z" fill="#107136"/>
    <path id="Path_32" data-name="Path 32" d="M9.014,104.189H24.043v10.019H19.033a5.009,5.009,0,0,0,0,10.019H39.071a5.009,5.009,0,1,0,0-10.019H34.062V104.189h70.132v10.019H99.185a5.009,5.009,0,0,0,0,10.019h20.038a5.009,5.009,0,0,0,0-10.019h-5.009V104.189h15.028a5.014,5.014,0,0,0,4.889-3.927l20.038-90.17A5.03,5.03,0,0,0,149.279,4H29.052a5.017,5.017,0,0,0-4.9,3.927L4.115,98.1a5.019,5.019,0,0,0,4.9,6.091M19.7,74.132H49.521L45.062,94.17H15.256Zm6.853-30.818a4.841,4.841,0,0,0,2.495.761H56.193L51.745,64.114H21.939Zm76.394-29.3L98.5,34.057H68.687l4.458-20.038ZM96.269,44.076,91.821,64.114H62.014l4.448-20.038Zm35.457,20.8a4.834,4.834,0,0,0-2.485-.761H102.09l4.448-20.038h29.816ZM55.332,94.17,59.79,74.132H89.6L85.138,94.17Zm69.882,0H95.408l4.458-20.038h29.375c.16,0,.291-.08.451-.09Zm13.365-60.114H108.763l4.458-20.038h29.816ZM33.07,14.019H62.876L58.428,34.057H29.052c-.16,0-.3.08-.461.09Z" transform="translate(36.071 36.076)" fill="#107136"/>
    <path id="Path_33" data-name="Path 33" d="M9.009,29.019H239.445a5.009,5.009,0,0,0,0-10.019H9.009a5.009,5.009,0,1,0,0,10.019" transform="translate(36.076 171.359)" fill="#107136"/>
    <path id="Path_34" data-name="Path 34" d="M119.218,25H9.009a5.009,5.009,0,0,0,0,10.019H119.218a5.009,5.009,0,0,0,0-10.019" transform="translate(36.076 225.473)" fill="#107136"/>
    <path id="Path_35" data-name="Path 35" d="M9.009,32.019H69.123a5.009,5.009,0,0,0,0-10.019H9.009a5.009,5.009,0,0,0,0,10.019" transform="translate(36.076 198.416)" fill="#107136"/>
    <path id="Path_36" data-name="Path 36" d="M83.132,27.009A5.011,5.011,0,0,0,78.123,22H18.009a5.009,5.009,0,0,0,0,10.019H78.123a5.011,5.011,0,0,0,5.009-5.009" transform="translate(117.246 198.416)" fill="#107136"/>
    <path id="Path_37" data-name="Path 37" d="M26.009,15.019H86.123A5.009,5.009,0,0,0,86.123,5H26.009a5.009,5.009,0,0,0,0,10.019" transform="translate(189.397 45.095)" fill="#107136"/>
    <path id="Path_38" data-name="Path 38" d="M26.009,21.019H56.066a5.009,5.009,0,0,0,0-10.019H26.009a5.009,5.009,0,0,0,0,10.019" transform="translate(189.397 99.208)" fill="#107136"/>
    <path id="Path_39" data-name="Path 39" d="M26.009,18.019H46.047A5.009,5.009,0,1,0,46.047,8H26.009a5.009,5.009,0,0,0,0,10.019" transform="translate(189.397 72.151)" fill="#107136"/>
    <path id="Path_40" data-name="Path 40" d="M23.009,35.019H53.066a5.009,5.009,0,0,0,0-10.019H23.009a5.009,5.009,0,0,0,0,10.019" transform="translate(162.341 225.473)" fill="#107136"/>
    <path id="Path_41" data-name="Path 41" d="M39.066,29H9.009a5.009,5.009,0,1,0,0,10.019H39.066a5.009,5.009,0,1,0,0-10.019" transform="translate(36.076 261.549)" fill="#107136"/>
    <path id="Path_42" data-name="Path 42" d="M123.2,36H23.009a5.009,5.009,0,1,0,0,10.019H123.2A5.009,5.009,0,1,0,123.2,36" transform="translate(162.341 324.681)" fill="#107136"/>
    <path id="Path_43" data-name="Path 43" d="M55.066,79.095A15.047,15.047,0,0,0,70.095,64.066,5.076,5.076,0,0,1,80.244,64l.12,10.149a5.018,5.018,0,0,0,5.009,4.949h.06a5.005,5.005,0,0,0,4.949-5.07l-.12-10.149a15.095,15.095,0,0,0-30.187.19,5.009,5.009,0,0,1-10.019,0V44.028a15.028,15.028,0,0,0-30.057,0V74.085a5.009,5.009,0,1,0,10.019,0V44.028a5.009,5.009,0,1,1,10.019,0V64.066A15.047,15.047,0,0,0,55.066,79.095" transform="translate(180.378 261.549)" fill="#107136"/>
  </g>
</svg>
