<svg xmlns="http://www.w3.org/2000/svg" xmlns:xlink="http://www.w3.org/1999/xlink" width="495" height="377" viewBox="0 0 495 377">
  <defs>
    <clipPath id="clip-path">
      <rect id="Rectangle_11" data-name="Rectangle 11" width="495" height="377" fill="none"/>
    </clipPath>
  </defs>
  <g id="Group_19" data-name="Group 19" clip-path="url(#clip-path)">
    <path id="Path_44" data-name="Path 44" d="M87.5,48.372H71.054l12-27.084A5.895,5.895,0,0,0,77.668,13H26.873a5.907,5.907,0,0,0-5.589,4.032L5.567,64.2a5.9,5.9,0,0,0,5.589,7.758h16.8l-16.8,51.219a5.894,5.894,0,0,0,9.775,6L91.676,58.43A5.9,5.9,0,0,0,87.5,48.372M30.069,103.365,41.695,67.9a5.854,5.854,0,0,0-.814-5.294,5.916,5.916,0,0,0-4.775-2.441H19.339L31.13,24.791H68.613L56.6,51.874a5.9,5.9,0,0,0,5.388,8.289H73.27Z" transform="translate(56.782 140.281)" fill="#107136"/>
    <path id="Path_45" data-name="Path 45" d="M330.143,47.163A164.508,164.508,0,0,0,212.235,96.932V64.85a17.708,17.708,0,0,0-17.686-17.686H153.281V17.686A17.708,17.708,0,0,0,135.594,0H76.64A17.708,17.708,0,0,0,58.954,17.686V47.163H17.686A17.708,17.708,0,0,0,0,64.85V359.62a17.708,17.708,0,0,0,17.686,17.686H194.549a17.708,17.708,0,0,0,17.686-17.686V327.537a164.508,164.508,0,0,0,117.908,49.769c91.025,0,165.071-74.046,165.071-165.071S421.168,47.163,330.143,47.163M70.745,17.686a5.913,5.913,0,0,1,5.9-5.9h58.954a5.913,5.913,0,0,1,5.9,5.9V47.163H70.745ZM17.686,58.954H194.549a5.913,5.913,0,0,1,5.9,5.9V82.536H11.791V64.85a5.913,5.913,0,0,1,5.9-5.9M194.549,365.515H17.686a5.913,5.913,0,0,1-5.9-5.9V341.934H200.444V359.62a5.913,5.913,0,0,1-5.9,5.9m5.9-35.372H11.791V94.327H200.444v16.13a164.111,164.111,0,0,0,0,203.557Zm129.7,35.372c-84.517,0-153.281-68.764-153.281-153.281S245.626,58.954,330.143,58.954s153.281,68.764,153.281,153.281S414.659,365.515,330.143,365.515" fill="#107136"/>
    <path id="Path_46" data-name="Path 46" d="M146.425,7A129.43,129.43,0,0,0,17.033,130.532a5.9,5.9,0,0,0,5.884,6.167H81.871a5.888,5.888,0,0,0,5.872-5.365c2.252-24.938,20.4-45.336,44.31-51.373L111.159,188.638a4.85,4.85,0,0,0,.189,2.464,36.722,36.722,0,0,0-.295,4.551,35.372,35.372,0,1,0,70.745,0,33.247,33.247,0,0,0-.259-4.186,5.75,5.75,0,0,0,.153-2.83L160.8,79.962C184.71,86,202.856,106.4,205.108,131.334a5.888,5.888,0,0,0,5.872,5.365h58.954a5.9,5.9,0,0,0,5.884-6.167A129.43,129.43,0,0,0,146.425,7M76.695,124.908H29.26A117.526,117.526,0,0,1,74.23,43.54L98.92,84.69a70.185,70.185,0,0,0-22.226,40.218m93.313,70.745a23.582,23.582,0,0,1-47.163,0,23.249,23.249,0,0,1,.483-4.7,4.894,4.894,0,0,0-.142-2.405l23.24-120.856,23.181,120.549a5.844,5.844,0,0,0-.083,2.712,23.249,23.249,0,0,1,.483,4.7m-17.792-160.3a5.9,5.9,0,0,0-11.579,0L134.458,67.5a70.56,70.56,0,0,0-26.1,10.022L83.887,36.736a117.943,117.943,0,0,1,125.077,0L184.5,77.521a70.56,70.56,0,0,0-26.1-10.022Zm63.942,89.551A70.186,70.186,0,0,0,193.931,84.69l24.69-41.15a117.47,117.47,0,0,1,44.958,81.368Z" transform="translate(183.717 75.536)" fill="#107136"/>
  </g>
</svg>
