<svg id="Group_9" data-name="Group 9" xmlns="http://www.w3.org/2000/svg" xmlns:xlink="http://www.w3.org/1999/xlink" width="394.153" height="395.935" viewBox="0 0 394.153 395.935">
  <defs>
    <clipPath id="clip-path">
      <rect id="Rectangle_6" data-name="Rectangle 6" width="394.153" height="395.935" fill="none"/>
    </clipPath>
  </defs>
  <g id="Group_8" data-name="Group 8" clip-path="url(#clip-path)">
    <path id="Path_14" data-name="Path 14" d="M394.156,84.843A84.786,84.786,0,0,0,229.419,56.562H40.643A4.722,4.722,0,0,0,36,60.465L.21,266.238a14.139,14.139,0,0,0,13.933,16.573h2.932v4.714a23.594,23.594,0,0,0,23.568,23.568H149.053V348.8H134.913a14.158,14.158,0,0,0-14.141,14.141v28.281a4.715,4.715,0,0,0,4.714,4.714h103.7a4.715,4.715,0,0,0,4.714-4.714V362.94A14.158,14.158,0,0,0,219.756,348.8H205.616V311.092H314.026a23.594,23.594,0,0,0,23.568-23.568v-4.714h2.932a14.139,14.139,0,0,0,13.933-16.573l-17.6-101.227a84.938,84.938,0,0,0,57.3-80.167M124.675,188.54l2.866-65.989h99.587L230,188.54Zm105.734,9.427,3.281,75.416H120.98l3.281-75.416ZM34.77,122.551H118.1l-2.866,65.989H23.3Zm193.443-12.792a4.626,4.626,0,0,0-1.452,3.365H127.946L130,65.989h96.655a83.743,83.743,0,0,0,1.555,43.77M44.6,65.989h75.963l-2.055,47.135H36.41ZM10.533,271.706A4.631,4.631,0,0,1,9.5,267.859l12.161-69.92.132.028h93.035l-3.281,75.416h-97.4a4.65,4.65,0,0,1-3.611-1.678M224.47,362.94v23.568H130.2V362.94a4.721,4.721,0,0,1,4.714-4.714h84.843a4.721,4.721,0,0,1,4.714,4.714M196.189,348.8H158.48V311.092h37.708Zm131.978-61.276a14.158,14.158,0,0,1-14.141,14.141H40.643A14.158,14.158,0,0,1,26.5,287.524v-4.714H328.167Zm15.969-15.819a4.65,4.65,0,0,1-3.611,1.678h-97.4l-3.281-75.416H332.88l.132-.028,12.161,69.92a4.631,4.631,0,0,1-1.037,3.846M331.372,188.54H239.43l-2.592-59.824a84.3,84.3,0,0,0,90.9,38.9Zm-22.059-28.281a75.416,75.416,0,1,1,75.416-75.416,75.5,75.5,0,0,1-75.416,75.416" transform="translate(-0.003)" fill="#107136"/>
    <path id="Path_15" data-name="Path 15" d="M107.939,13.427H93.8V8.714a4.714,4.714,0,1,0-9.427,0v4.714H65.518V8.714a4.714,4.714,0,0,0-9.427,0v4.714H41.95a4.711,4.711,0,0,0-4.666,4.054L27.857,83.47a4.716,4.716,0,0,0,4.666,5.373h84.843a4.716,4.716,0,0,0,4.666-5.373l-9.427-65.989a4.711,4.711,0,0,0-4.666-4.054m-4.082,9.427,1.348,9.427H44.693l1.348-9.427ZM37.962,79.416l5.383-37.708h63.2l5.392,37.708Z" transform="translate(234.366 33.708)" fill="#107136"/>
    <path id="Path_16" data-name="Path 16" d="M42.324,10.891a3.259,3.259,0,0,0-1.508-1.028,4.661,4.661,0,0,0-5.091,1.028A3.4,3.4,0,0,0,34.688,12.4a4.125,4.125,0,0,0-.377,1.8,3.812,3.812,0,0,0,.377,1.782,3.3,3.3,0,0,0,1.037,1.508,3.445,3.445,0,0,0,1.508,1.046,3.826,3.826,0,0,0,1.791.377,4.4,4.4,0,0,0,3.3-1.423,3.3,3.3,0,0,0,1.037-1.508,3.813,3.813,0,0,0,.377-1.782,4.457,4.457,0,0,0-1.414-3.309" transform="translate(289.14 80.07)" fill="#107136"/>
    <path id="Path_17" data-name="Path 17" d="M40.324,10.891a4.661,4.661,0,0,0-5.091-1.028,3.259,3.259,0,0,0-1.508,1.028A4.457,4.457,0,0,0,32.311,14.2a3.811,3.811,0,0,0,.377,1.782,3.3,3.3,0,0,0,1.037,1.508,4.4,4.4,0,0,0,3.3,1.423,3.826,3.826,0,0,0,1.791-.377,3.445,3.445,0,0,0,1.508-1.046,3.3,3.3,0,0,0,1.037-1.508,3.812,3.812,0,0,0,.377-1.782,4.125,4.125,0,0,0-.377-1.8,3.4,3.4,0,0,0-1.037-1.508" transform="translate(272.286 80.07)" fill="#107136"/>
    <path id="Path_18" data-name="Path 18" d="M38.324,10.844a4.741,4.741,0,0,0-6.6,0,4.457,4.457,0,0,0-1.414,3.309,3.812,3.812,0,0,0,.377,1.782,3.3,3.3,0,0,0,1.037,1.508,3.445,3.445,0,0,0,1.508,1.046,4.443,4.443,0,0,0,3.582,0,3.445,3.445,0,0,0,1.508-1.046,3.3,3.3,0,0,0,1.037-1.508,3.812,3.812,0,0,0,.377-1.782,4.125,4.125,0,0,0-.377-1.8,3.4,3.4,0,0,0-1.037-1.508" transform="translate(255.432 80.118)" fill="#107136"/>
  </g>
</svg>
